<svg width="2781" height="1276" xmlns="http://www.w3.org/2000/svg" xmlns:xlink="http://www.w3.org/1999/xlink" xml:space="preserve" overflow="hidden"><defs><clipPath id="clip0"><path d="M1481.86 522.609 1694.09 620.841 1595.85 833.068 1383.63 734.835Z" fill-rule="evenodd" clip-rule="evenodd"/></clipPath><clipPath id="clip1"><path d="M1481.86 522.609 1694.09 620.841 1595.85 833.068 1383.63 734.835Z" fill-rule="evenodd" clip-rule="evenodd"/></clipPath><clipPath id="clip2"><path d="M1481.86 522.609 1694.09 620.841 1595.85 833.068 1383.63 734.835Z" fill-rule="evenodd" clip-rule="evenodd"/></clipPath></defs><g transform="translate(-184 -355)"><path d="M893 1551 1282.76 1551" stroke="#7F7F7F" stroke-width="10.3125" stroke-miterlimit="8" fill="none" fill-rule="evenodd"/><path d="M922 1184 922 1573.76" stroke="#7F7F7F" stroke-width="10.3125" stroke-miterlimit="8" fill="none" fill-rule="evenodd"/><path d="M0 0 249.219 288.75" stroke="#7F7F7F" stroke-width="10.3125" stroke-miterlimit="8" fill="none" fill-rule="evenodd" transform="matrix(1 0 0 -1 955 1516.75)"/><path d="M0 0 183.062 212.099" stroke="#7F7F7F" stroke-width="4.58333" stroke-miterlimit="8" stroke-dasharray="18.3333 13.75" fill="none" fill-rule="evenodd" transform="matrix(1 0 0 -1 1021.5 1502.6)"/><path d="M0 0 183.062 212.099" stroke="#7F7F7F" stroke-width="4.58333" stroke-miterlimit="8" stroke-dasharray="18.3333 13.75" fill="none" fill-rule="evenodd" transform="matrix(1 0 0 -1 955.5 1456.6)"/><rect x="1079" y="1205" width="34" height="33" fill="#4E95D9"/><rect x="1004" y="1222" width="34" height="33" fill="#4E95D9"/><rect x="984" y="1287" width="33" height="34" fill="#4E95D9"/><rect x="955" y="1344" width="34.0001" height="34" fill="#4E95D9"/><rect x="1220" y="1334" width="34" height="33" fill="#E97132"/><rect x="1158" y="1373" width="34" height="33" fill="#E97132"/><rect x="1113" y="1428" width="34" height="34" fill="#E97132"/><rect x="1079" y="1490" width="33" height="33.9996" fill="#E97132"/><rect x="1220" y="1419" width="34" height="33" fill="#E97132"/><rect x="1149" y="1470" width="33" height="34" fill="#E97132"/><path d="M534.5 1226.5C534.5 1211.04 558.229 1198.5 587.5 1198.5 616.771 1198.5 640.5 1211.04 640.5 1226.5 640.5 1241.96 616.771 1254.5 587.5 1254.5 558.229 1254.5 534.5 1241.96 534.5 1226.5Z" stroke="#7F7F7F" stroke-width="4.58333" stroke-miterlimit="8" fill="#FFFFFF" fill-rule="evenodd"/><path d="M448 1321.5C448 1305.76 471.505 1293 500.5 1293 529.495 1293 553 1305.76 553 1321.5 553 1337.24 529.495 1350 500.5 1350 471.505 1350 448 1337.24 448 1321.5Z" fill="#E97132" fill-rule="evenodd"/><path d="M622.5 1322C622.5 1306.26 646.005 1293.5 675 1293.5 703.995 1293.5 727.5 1306.26 727.5 1322 727.5 1337.74 703.995 1350.5 675 1350.5 646.005 1350.5 622.5 1337.74 622.5 1322Z" stroke="#7F7F7F" stroke-width="4.58333" stroke-miterlimit="8" fill="#FFFFFF" fill-rule="evenodd"/><path d="M533.5 1418C533.5 1402.26 557.005 1389.5 586 1389.5 614.995 1389.5 638.5 1402.26 638.5 1418 638.5 1433.74 614.995 1446.5 586 1446.5 557.005 1446.5 533.5 1433.74 533.5 1418Z" stroke="#7F7F7F" stroke-width="4.58333" stroke-miterlimit="8" fill="#FFFFFF" fill-rule="evenodd"/><path d="M712 1420.5C712 1404.76 735.729 1392 765 1392 794.271 1392 818 1404.76 818 1420.5 818 1436.24 794.271 1449 765 1449 735.729 1449 712 1436.24 712 1420.5Z" fill="#4E95D9" fill-rule="evenodd"/><path d="M450 1512.5C450 1496.76 473.505 1484 502.5 1484 531.495 1484 555 1496.76 555 1512.5 555 1528.24 531.495 1541 502.5 1541 473.505 1541 450 1528.24 450 1512.5Z" fill="#4E95D9" fill-rule="evenodd"/><path d="M621 1511.5C621 1495.76 644.505 1483 673.5 1483 702.495 1483 726 1495.76 726 1511.5 726 1527.24 702.495 1540 673.5 1540 644.505 1540 621 1527.24 621 1511.5Z" fill="#E97132" fill-rule="evenodd"/><path d="M1.18419-1.24571 40.6189 36.2415 38.2505 38.7329-1.18419 1.24571ZM42.4285 27.6856 49.4004 46.9608 29.7971 40.9732Z" fill="#7F7F7F" transform="matrix(-1 0 0 1 549.9 1246.5)"/><path d="M625.672 1245.24 666.009 1282.83 663.665 1285.34 623.328 1247.76ZM667.733 1274.26 674.897 1293.46 655.235 1287.67Z" fill="#7F7F7F"/><path d="M1.15998-1.26829 43.1973 37.1792 40.8773 39.7157-1.15998 1.26829ZM44.8418 28.59 52.1836 47.7273 32.4687 42.1184Z" fill="#7F7F7F" transform="matrix(-1 0 0 1 637.683 1341.5)"/><path d="M713.69 1340.26 756.884 1381.73 754.503 1384.21 711.31 1342.74ZM758.736 1373.19 765.612 1392.5 746.039 1386.41Z" fill="#7F7F7F"/><path d="M1.23537-1.19497 37.0044 35.7832 34.5336 38.1732-1.23537 1.19497ZM39.1711 27.3107 45.3288 46.8612 25.9938 40.0571Z" fill="#7F7F7F" transform="matrix(-1 0 0 1 548.829 1438.5)"/><path d="M624.647 1437.22 665.358 1473.72 663.064 1476.28 622.353 1439.78ZM666.917 1465.11 674.449 1484.17 654.68 1478.76Z" fill="#7F7F7F"/><text fill="#7F7F7F" font-family="Aptos,Aptos_MSFontService,sans-serif" font-weight="400" font-size="69" transform="matrix(-1.83697e-16 -1 1 -1.83697e-16 1426 1470)">…</text><path d="M1393.5 1291.5C1393.5 1277.14 1405.14 1265.5 1419.5 1265.5 1433.86 1265.5 1445.5 1277.14 1445.5 1291.5 1445.5 1305.86 1433.86 1317.5 1419.5 1317.5 1405.14 1317.5 1393.5 1305.86 1393.5 1291.5Z" stroke="#7F7F7F" stroke-width="3.4375" stroke-miterlimit="8" fill="#FFFFFF" fill-rule="evenodd"/><path d="M1393.5 1370.5C1393.5 1356.14 1405.14 1344.5 1419.5 1344.5 1433.86 1344.5 1445.5 1356.14 1445.5 1370.5 1445.5 1384.86 1433.86 1396.5 1419.5 1396.5 1405.14 1396.5 1393.5 1384.86 1393.5 1370.5Z" stroke="#7F7F7F" stroke-width="3.4375" stroke-miterlimit="8" fill="#FFFFFF" fill-rule="evenodd"/><path d="M1395.5 1511.5C1395.5 1497.14 1407.14 1485.5 1421.5 1485.5 1435.86 1485.5 1447.5 1497.14 1447.5 1511.5 1447.5 1525.86 1435.86 1537.5 1421.5 1537.5 1407.14 1537.5 1395.5 1525.86 1395.5 1511.5Z" stroke="#7F7F7F" stroke-width="3.4375" stroke-miterlimit="8" fill="#FFFFFF" fill-rule="evenodd"/><path d="M1529.5 1194.5C1529.5 1180.14 1541.14 1168.5 1555.5 1168.5 1569.86 1168.5 1581.5 1180.14 1581.5 1194.5 1581.5 1208.86 1569.86 1220.5 1555.5 1220.5 1541.14 1220.5 1529.5 1208.86 1529.5 1194.5Z" stroke="#7F7F7F" stroke-width="3.4375" stroke-miterlimit="8" fill="#FFFFFF" fill-rule="evenodd"/><path d="M1530.5 1272.5C1530.5 1258.14 1542.14 1246.5 1556.5 1246.5 1570.86 1246.5 1582.5 1258.14 1582.5 1272.5 1582.5 1286.86 1570.86 1298.5 1556.5 1298.5 1542.14 1298.5 1530.5 1286.86 1530.5 1272.5Z" stroke="#7F7F7F" stroke-width="3.4375" stroke-miterlimit="8" fill="#FFFFFF" fill-rule="evenodd"/><path d="M1529.5 1349.5C1529.5 1335.14 1541.14 1323.5 1555.5 1323.5 1569.86 1323.5 1581.5 1335.14 1581.5 1349.5 1581.5 1363.86 1569.86 1375.5 1555.5 1375.5 1541.14 1375.5 1529.5 1363.86 1529.5 1349.5Z" stroke="#7F7F7F" stroke-width="3.4375" stroke-miterlimit="8" fill="#FFFFFF" fill-rule="evenodd"/><path d="M1529.5 1426.5C1529.5 1412.14 1541.14 1400.5 1555.5 1400.5 1569.86 1400.5 1581.5 1412.14 1581.5 1426.5 1581.5 1440.86 1569.86 1452.5 1555.5 1452.5 1541.14 1452.5 1529.5 1440.86 1529.5 1426.5Z" stroke="#7F7F7F" stroke-width="3.4375" stroke-miterlimit="8" fill="#FFFFFF" fill-rule="evenodd"/><path d="M1530.5 1505.5C1530.5 1491.14 1542.14 1479.5 1556.5 1479.5 1570.86 1479.5 1582.5 1491.14 1582.5 1505.5 1582.5 1519.86 1570.86 1531.5 1556.5 1531.5 1542.14 1531.5 1530.5 1519.86 1530.5 1505.5Z" stroke="#7F7F7F" stroke-width="3.4375" stroke-miterlimit="8" fill="#FFFFFF" fill-rule="evenodd"/><path d="M1529.5 1583C1529.5 1568.92 1541.14 1557.5 1555.5 1557.5 1569.86 1557.5 1581.5 1568.92 1581.5 1583 1581.5 1597.08 1569.86 1608.5 1555.5 1608.5 1541.14 1608.5 1529.5 1597.08 1529.5 1583Z" stroke="#7F7F7F" stroke-width="3.4375" stroke-miterlimit="8" fill="#FFFFFF" fill-rule="evenodd"/><path d="M1662.5 1194.5C1662.5 1180.14 1674.14 1168.5 1688.5 1168.5 1702.86 1168.5 1714.5 1180.14 1714.5 1194.5 1714.5 1208.86 1702.86 1220.5 1688.5 1220.5 1674.14 1220.5 1662.5 1208.86 1662.5 1194.5Z" stroke="#7F7F7F" stroke-width="3.4375" stroke-miterlimit="8" fill="#FFFFFF" fill-rule="evenodd"/><path d="M1664.5 1272.5C1664.5 1258.14 1676.14 1246.5 1690.5 1246.5 1704.86 1246.5 1716.5 1258.14 1716.5 1272.5 1716.5 1286.86 1704.86 1298.5 1690.5 1298.5 1676.14 1298.5 1664.5 1286.86 1664.5 1272.5Z" stroke="#7F7F7F" stroke-width="3.4375" stroke-miterlimit="8" fill="#FFFFFF" fill-rule="evenodd"/><path d="M1662.5 1349.5C1662.5 1335.14 1674.14 1323.5 1688.5 1323.5 1702.86 1323.5 1714.5 1335.14 1714.5 1349.5 1714.5 1363.86 1702.86 1375.5 1688.5 1375.5 1674.14 1375.5 1662.5 1363.86 1662.5 1349.5Z" stroke="#7F7F7F" stroke-width="3.4375" stroke-miterlimit="8" fill="#FFFFFF" fill-rule="evenodd"/><path d="M1662.5 1426.5C1662.5 1412.14 1674.14 1400.5 1688.5 1400.5 1702.86 1400.5 1714.5 1412.14 1714.5 1426.5 1714.5 1440.86 1702.86 1452.5 1688.5 1452.5 1674.14 1452.5 1662.5 1440.86 1662.5 1426.5Z" stroke="#7F7F7F" stroke-width="3.4375" stroke-miterlimit="8" fill="#FFFFFF" fill-rule="evenodd"/><path d="M1664.5 1505.5C1664.5 1491.14 1676.14 1479.5 1690.5 1479.5 1704.86 1479.5 1716.5 1491.14 1716.5 1505.5 1716.5 1519.86 1704.86 1531.5 1690.5 1531.5 1676.14 1531.5 1664.5 1519.86 1664.5 1505.5Z" stroke="#7F7F7F" stroke-width="3.4375" stroke-miterlimit="8" fill="#FFFFFF" fill-rule="evenodd"/><path d="M1662.5 1583C1662.5 1568.92 1674.14 1557.5 1688.5 1557.5 1702.86 1557.5 1714.5 1568.92 1714.5 1583 1714.5 1597.08 1702.86 1608.5 1688.5 1608.5 1674.14 1608.5 1662.5 1597.08 1662.5 1583Z" stroke="#7F7F7F" stroke-width="3.4375" stroke-miterlimit="8" fill="#FFFFFF" fill-rule="evenodd"/><path d="M1803.5 1326.5C1803.5 1312.14 1815.14 1300.5 1829.5 1300.5 1843.86 1300.5 1855.5 1312.14 1855.5 1326.5 1855.5 1340.86 1843.86 1352.5 1829.5 1352.5 1815.14 1352.5 1803.5 1340.86 1803.5 1326.5Z" stroke="#7F7F7F" stroke-width="3.4375" stroke-miterlimit="8" fill="#4E95D9" fill-rule="evenodd"/><path d="M1804.5 1455.5C1804.5 1441.14 1816.14 1429.5 1830.5 1429.5 1844.86 1429.5 1856.5 1441.14 1856.5 1455.5 1856.5 1469.86 1844.86 1481.5 1830.5 1481.5 1816.14 1481.5 1804.5 1469.86 1804.5 1455.5Z" stroke="#7F7F7F" stroke-width="3.4375" stroke-miterlimit="8" fill="#E97132" fill-rule="evenodd"/><path d="M0 0 83.7245 96.3178" stroke="#7F7F7F" stroke-width="2.29167" stroke-miterlimit="8" fill="none" fill-rule="evenodd" transform="matrix(1 0 0 -1 1445 1290.32)"/><path d="M0 0 85.2402 18.9739" stroke="#7F7F7F" stroke-width="2.29167" stroke-miterlimit="8" fill="none" fill-rule="evenodd" transform="matrix(1 0 0 -1 1445 1290.97)"/><path d="M1445 1291 1528.72 1349.37" stroke="#7F7F7F" stroke-width="2.29167" stroke-miterlimit="8" fill="none" fill-rule="evenodd"/><path d="M1445 1291 1528.72 1426.71" stroke="#7F7F7F" stroke-width="2.29167" stroke-miterlimit="8" fill="none" fill-rule="evenodd"/><path d="M1445 1291 1530.24 1505.61" stroke="#7F7F7F" stroke-width="2.29167" stroke-miterlimit="8" fill="none" fill-rule="evenodd"/><path d="M1445 1291 1528.72 1582.95" stroke="#7F7F7F" stroke-width="2.29167" stroke-miterlimit="8" fill="none" fill-rule="evenodd"/><path d="M1581 1194 1662.52 1194" stroke="#7F7F7F" stroke-width="2.29167" stroke-miterlimit="8" fill="none" fill-rule="evenodd"/><path d="M1581 1194 1664.04 1271.34" stroke="#7F7F7F" stroke-width="2.29167" stroke-miterlimit="8" fill="none" fill-rule="evenodd"/><path d="M1581 1194 1662.52 1348.69" stroke="#7F7F7F" stroke-width="2.29167" stroke-miterlimit="8" fill="none" fill-rule="evenodd"/><path d="M1581 1194 1662.52 1426.03" stroke="#7F7F7F" stroke-width="2.29167" stroke-miterlimit="8" fill="none" fill-rule="evenodd"/><path d="M1581 1194 1664.04 1504.92" stroke="#7F7F7F" stroke-width="2.29167" stroke-miterlimit="8" fill="none" fill-rule="evenodd"/><path d="M1581 1194 1662.52 1582.27" stroke="#7F7F7F" stroke-width="2.29167" stroke-miterlimit="8" fill="none" fill-rule="evenodd"/><path d="M1714 1194 1802.4 1326.1" stroke="#7F7F7F" stroke-width="2.29167" stroke-miterlimit="8" fill="none" fill-rule="evenodd"/><path d="M1716 1272 1802.88 1326.76" stroke="#7F7F7F" stroke-width="2.29167" stroke-miterlimit="8" fill="none" fill-rule="evenodd"/><path d="M0 0 88.3988 22.5886" stroke="#7F7F7F" stroke-width="2.29167" stroke-miterlimit="8" fill="none" fill-rule="evenodd" transform="matrix(1 0 0 -1 1714 1348.59)"/><path d="M0 0 88.3988 99.9325" stroke="#7F7F7F" stroke-width="2.29167" stroke-miterlimit="8" fill="none" fill-rule="evenodd" transform="matrix(1 0 0 -1 1714 1425.93)"/><path d="M0 0 86.883 178.826" stroke="#7F7F7F" stroke-width="2.29167" stroke-miterlimit="8" fill="none" fill-rule="evenodd" transform="matrix(1 0 0 -1 1716 1504.83)"/><path d="M0 0 88.3988 256.17" stroke="#7F7F7F" stroke-width="2.29167" stroke-miterlimit="8" fill="none" fill-rule="evenodd" transform="matrix(1 0 0 -1 1714 1582.17)"/><path d="M1582 1272 1663.52 1272" stroke="#7F7F7F" stroke-width="2.29167" stroke-miterlimit="8" fill="none" fill-rule="evenodd"/><path d="M0 0 80.0073 77.3439" stroke="#7F7F7F" stroke-width="2.29167" stroke-miterlimit="8" fill="none" fill-rule="evenodd" transform="matrix(1 0 0 -1 1582 1271.34)"/><path d="M1582 1272 1662.01 1349.34" stroke="#7F7F7F" stroke-width="2.29167" stroke-miterlimit="8" fill="none" fill-rule="evenodd"/><path d="M1582 1272 1662.01 1426.69" stroke="#7F7F7F" stroke-width="2.29167" stroke-miterlimit="8" fill="none" fill-rule="evenodd"/><path d="M1582 1272 1663.52 1505.58" stroke="#7F7F7F" stroke-width="2.29167" stroke-miterlimit="8" fill="none" fill-rule="evenodd"/><path d="M1582 1272 1662.01 1582.92" stroke="#7F7F7F" stroke-width="2.29167" stroke-miterlimit="8" fill="none" fill-rule="evenodd"/><path d="M1581 1582 1662.52 1582" stroke="#7F7F7F" stroke-width="2.29167" stroke-miterlimit="8" fill="none" fill-rule="evenodd"/><path d="M0 0 83.0388 77.3439" stroke="#7F7F7F" stroke-width="2.29167" stroke-miterlimit="8" fill="none" fill-rule="evenodd" transform="matrix(1 0 0 -1 1581 1582.34)"/><path d="M0 0 81.5231 156.237" stroke="#7F7F7F" stroke-width="2.29167" stroke-miterlimit="8" fill="none" fill-rule="evenodd" transform="matrix(1 0 0 -1 1581 1582.24)"/><path d="M0 0 81.5231 233.581" stroke="#7F7F7F" stroke-width="2.29167" stroke-miterlimit="8" fill="none" fill-rule="evenodd" transform="matrix(1 0 0 -1 1581 1582.58)"/><path d="M1662.52 1582.24 1581 1426" stroke="#7F7F7F" stroke-width="2.29167" stroke-miterlimit="8" fill="none" fill-rule="evenodd"/><path d="M0 0 83.0388 310.925" stroke="#7F7F7F" stroke-width="2.29167" stroke-miterlimit="8" fill="none" fill-rule="evenodd" transform="matrix(1 0 0 -1 1581 1582.92)"/><path d="M1582 1505 1663.52 1505" stroke="#7F7F7F" stroke-width="2.29167" stroke-miterlimit="8" fill="none" fill-rule="evenodd"/><path d="M1582 1505 1662.01 1582.34" stroke="#7F7F7F" stroke-width="2.29167" stroke-miterlimit="8" fill="none" fill-rule="evenodd"/><path d="M0 0 80.0073 78.8932" stroke="#7F7F7F" stroke-width="2.29167" stroke-miterlimit="8" fill="none" fill-rule="evenodd" transform="matrix(1 0 0 -1 1582 1504.89)"/><path d="M1581 1426 1662.52 1426" stroke="#7F7F7F" stroke-width="2.29167" stroke-miterlimit="8" fill="none" fill-rule="evenodd"/><path d="M1581 1426 1664.04 1503.34" stroke="#7F7F7F" stroke-width="2.29167" stroke-miterlimit="8" fill="none" fill-rule="evenodd"/><path d="M0 0 81.5231 388.269" stroke="#7F7F7F" stroke-width="2.29167" stroke-miterlimit="8" fill="none" fill-rule="evenodd" transform="matrix(1 0 0 -1 1581 1582.27)"/><path d="M1447 1511 1529.21 1582.95" stroke="#7F7F7F" stroke-width="2.29167" stroke-miterlimit="8" fill="none" fill-rule="evenodd"/><path d="M1662.52 1426.34 1581 1349" stroke="#7F7F7F" stroke-width="2.29167" stroke-miterlimit="8" fill="none" fill-rule="evenodd"/><path d="M0 0 81.5231 154.688" stroke="#7F7F7F" stroke-width="2.29167" stroke-miterlimit="8" fill="none" fill-rule="evenodd" transform="matrix(-1 0 0 1 1662.52 1194)"/><path d="M0 0 81.5231 0.000360892" stroke="#7F7F7F" stroke-width="2.29167" stroke-miterlimit="8" fill="none" fill-rule="evenodd" transform="matrix(-1 0 0 1 1662.52 1349)"/><path d="M0 0 83.0388 154.688" stroke="#7F7F7F" stroke-width="2.29167" stroke-miterlimit="8" fill="none" fill-rule="evenodd" transform="matrix(-1 0 0 1 1664.04 1272)"/><path d="M0 0 83.7245 5.39209" stroke="#7F7F7F" stroke-width="2.29167" stroke-miterlimit="8" fill="none" fill-rule="evenodd" transform="matrix(1 0 0 -1 1447 1510.39)"/><path d="M0 0 82.2088 84.2853" stroke="#7F7F7F" stroke-width="2.29167" stroke-miterlimit="8" fill="none" fill-rule="evenodd" transform="matrix(1 0 0 -1 1447 1510.29)"/><path d="M0 0 82.2088 161.629" stroke="#7F7F7F" stroke-width="2.29167" stroke-miterlimit="8" fill="none" fill-rule="evenodd" transform="matrix(1 0 0 -1 1447 1510.63)"/><path d="M0 0 83.7245 238.973" stroke="#7F7F7F" stroke-width="2.29167" stroke-miterlimit="8" fill="none" fill-rule="evenodd" transform="matrix(1 0 0 -1 1447 1510.97)"/><path d="M0 0 82.2088 316.317" stroke="#7F7F7F" stroke-width="2.29167" stroke-miterlimit="8" fill="none" fill-rule="evenodd" transform="matrix(1 0 0 -1 1447 1510.32)"/><path d="M0 0 83.7245 175.377" stroke="#7F7F7F" stroke-width="2.29167" stroke-miterlimit="8" fill="none" fill-rule="evenodd" transform="matrix(1 0 0 -1 1445 1369.38)"/><path d="M0 0 85.2402 98.0332" stroke="#7F7F7F" stroke-width="2.29167" stroke-miterlimit="8" fill="none" fill-rule="evenodd" transform="matrix(1 0 0 -1 1445 1370.03)"/><path d="M0 0 83.7245 20.6892" stroke="#7F7F7F" stroke-width="2.29167" stroke-miterlimit="8" fill="none" fill-rule="evenodd" transform="matrix(1 0 0 -1 1445 1369.69)"/><path d="M1445 1370 1528.72 1426.65" stroke="#7F7F7F" stroke-width="2.29167" stroke-miterlimit="8" fill="none" fill-rule="evenodd"/><path d="M1445 1370 1530.24 1505.55" stroke="#7F7F7F" stroke-width="2.29167" stroke-miterlimit="8" fill="none" fill-rule="evenodd"/><path d="M1445 1370 1528.72 1582.89" stroke="#7F7F7F" stroke-width="2.29167" stroke-miterlimit="8" fill="none" fill-rule="evenodd"/><path d="M0 0 89.9145 127.258" stroke="#7F7F7F" stroke-width="2.29167" stroke-miterlimit="8" fill="none" fill-rule="evenodd" transform="matrix(1 0 0 -1 1714 1582.26)"/><path d="M0 0 88.3988 49.9139" stroke="#7F7F7F" stroke-width="2.29167" stroke-miterlimit="8" fill="none" fill-rule="evenodd" transform="matrix(1 0 0 -1 1716 1504.91)"/><path d="M1714 1426 1803.91 1454.98" stroke="#7F7F7F" stroke-width="2.29167" stroke-miterlimit="8" fill="none" fill-rule="evenodd"/><path d="M1714 1349 1803.91 1455.32" stroke="#7F7F7F" stroke-width="2.29167" stroke-miterlimit="8" fill="none" fill-rule="evenodd"/><path d="M1716 1272 1804.4 1455.67" stroke="#7F7F7F" stroke-width="2.29167" stroke-miterlimit="8" fill="none" fill-rule="evenodd"/><path d="M1714 1194 1803.91 1455.01" stroke="#7F7F7F" stroke-width="2.29167" stroke-miterlimit="8" fill="none" fill-rule="evenodd"/><rect x="369.5" y="843.5" width="868" height="75.9999" stroke="#595959" stroke-width="6.875" stroke-miterlimit="8" fill="#D9D9D9"/><rect x="369.5" y="944.5" width="868" height="76" stroke="#595959" stroke-width="6.875" stroke-miterlimit="8" fill="#D9D9D9"/><rect x="369.5" y="1044.5" width="868" height="77" stroke="#595959" stroke-width="6.875" stroke-miterlimit="8" fill="#D9D9D9"/><rect x="369.5" y="625.5" width="868" height="76" stroke="#595959" stroke-width="6.875" stroke-miterlimit="8" fill="#D9D9D9"/><rect x="302" y="715" width="105" height="105" fill="#8ED973"/><rect x="413" y="715" width="105" height="105" fill="#A6A6A6"/><rect x="525" y="715" width="105" height="105" fill="#8ED973"/><rect x="636" y="715" width="105" height="105" fill="#8ED973"/><rect x="747" y="715" width="105" height="105" fill="#A6A6A6"/><rect x="859" y="715" width="105" height="105" fill="#8ED973"/><rect x="970" y="715" width="105" height="105" fill="#A6A6A6"/><rect x="1082" y="715" width="105" height="105" fill="#A6A6A6"/><rect x="1193" y="715" width="105" height="105" fill="#8ED973"/><rect x="1304" y="715" width="105" height="105" fill="#A6A6A6"/><rect x="293" y="715" width="1116" height="105" stroke="#595959" stroke-width="10.3125" stroke-miterlimit="8" stroke-dasharray="41.25 30.9375" fill="none"/><path d="M848 1224C848 1179.82 883.818 1144 928.002 1144L1248 1144C1292.18 1144 1328 1179.82 1328 1224L1328 1544C1328 1588.18 1292.18 1624 1248 1624L928.002 1624C883.818 1624 848 1588.18 848 1544Z" stroke="#8ED973" stroke-width="13.75" stroke-miterlimit="8" fill="none" fill-rule="evenodd"/><text fill="#7F7F7F" font-family="Cascadia Code,Cascadia Code_MSFontService,sans-serif" font-weight="400" font-size="165" transform="matrix(1 0 0 1 283.988 563)">Locally</text><text fill="#7F7F7F" font-family="Cascadia Code,Cascadia Code_MSFontService,sans-serif" font-weight="400" font-size="165" transform="matrix(1 0 0 1 961.748 563)">-</text><text fill="#7F7F7F" font-family="Cascadia Code,Cascadia Code_MSFontService,sans-serif" font-weight="400" font-size="165" transform="matrix(1 0 0 1 1058.57 563)">Tailored</text><text fill="#7F7F7F" font-family="Cascadia Code,Cascadia Code_MSFontService,sans-serif" font-weight="400" font-size="165" transform="matrix(1 0 0 1 1833.15 563)"> </text><text fill="#7F7F7F" font-family="Cascadia Code,Cascadia Code_MSFontService,sans-serif" font-weight="400" font-size="165" transform="matrix(1 0 0 1 1316.05 1042)">Feature &amp; Model</text><text fill="#7F7F7F" font-family="Cascadia Code,Cascadia Code_MSFontService,sans-serif" font-weight="400" font-size="165" transform="matrix(1 0 0 1 2768.39 1042)"> </text><text fill="#7F7F7F" font-family="Cascadia Code,Cascadia Code_MSFontService,sans-serif" font-weight="400" font-size="165" transform="matrix(1 0 0 1 1990.43 1253)">Selector</text><g clip-path="url(#clip0)"><g clip-path="url(#clip1)"><g clip-path="url(#clip2)"><path d="M1601.78 704.279C1594.49 700.902 1591.28 692.17 1594.66 684.875 1598.03 677.58 1606.76 674.374 1614.06 677.75 1621.36 681.127 1624.56 689.859 1621.18 697.154 1617.81 704.449 1609.08 707.655 1601.78 704.279ZM1572.17 633.128C1566.54 627.303 1567.03 618.133 1572.86 612.508 1578.68 606.883 1587.85 607.369 1593.48 613.194 1599.1 619.019 1598.61 628.189 1592.79 633.814 1587.07 639.218 1577.79 638.953 1572.17 633.128ZM1542.26 682.095C1538.5 680.356 1536.95 676.152 1538.69 672.394 1540.43 668.635 1544.64 667.092 1548.4 668.831 1552.15 670.571 1553.7 674.775 1551.96 678.533 1550.22 682.291 1546.01 683.835 1542.26 682.095ZM1620.2 664.486C1614.45 661.826 1608.33 661.139 1602.47 662.187L1575.5 664.199 1597.37 648.281C1599.29 647.024 1601.22 645.767 1603.02 644.187 1614.79 633.26 1615.32 614.715 1604.39 602.947 1593.47 591.178 1574.92 590.647 1563.15 601.574 1551.38 612.501 1550.85 631.046 1561.78 642.815 1563.92 645.148 1566.37 646.818 1568.92 648.267L1539.81 658.954 1529.94 667.535 1449.37 673.997 1425.87 689.964 1503.28 690.9 1444.87 741.708 1473.12 738.676 1538.18 691.483 1551.26 691.633 1580.37 680.946C1575.13 695.164 1581.71 711.096 1595.64 717.543 1610.23 724.296 1627.7 717.884 1634.45 703.294 1641.2 688.703 1634.79 671.24 1620.2 664.486Z" fill="#A6CAEC"/></g></g></g></g></svg>